# xmcd
#
# Track frame offsets:
# 150
# 15015
# 34599
# 51688
# 71750
# 92225
# 110206
# 126692
# 142451
# 162281
# 184378
# 206382
# 228718
# 246847
# 265860
#
# Disc length: 4173 seconds
#
#
# Revision: 0
# Processed by: cddbd v1.5.1PL2 Copyright (c) Steve Scherf et al.
# Submitted via: FreeRIP 2.52 
#
DISCID=ec104b0f
DTITLE=Lani Misalucha - Greatest Hits
DYEAR=2000
DGENRE=
TTITLE0=You Don't Have To Say You Love Me
TTITLE1=Tunay Na Mahai
TTITLE2=Bukas Na Lang Kita Mamahalin
TTITLE3=Tila
TTITLE4=Kung Maibabalik Ko Lang
TTITLE5=Malaya Ka Na
TTITLE6=Love Me Again
TTITLE7=Araw-Araw Gabi-Gabi
TTITLE8=Neither One Of Us
TTITLE9=Sana Dalawa Ang Puso Ko
TTITLE10=Through The Fire
TTITLE11=Sana Kahit Minsan
TTITLE12=Loving You
TTITLE13=Muntik Nang Maabot Ang Langit
TTITLE14=Whitney Houston Medley
EXTD=
EXTT0=
EXTT1=
EXTT2=
EXTT3=
EXTT4=
EXTT5=
EXTT6=
EXTT7=
EXTT8=
EXTT9=
EXTT10=
EXTT11=
EXTT12=
EXTT13=
EXTT14=
PLAYORDER=
